<svg width="19" height="19" viewBox="0 0 19 19" fill="none" xmlns="http://www.w3.org/2000/svg">
<path d="M17.8482 10.5253H16.9444V16.6177C16.9444 17.5777 16.1337 18.3583 15.1368 18.3583H4.29102C3.29412 18.3583 2.4834 17.5777 2.4834 16.6177V10.5253H1.57959C1.40086 10.5253 1.22615 10.4742 1.07756 10.3786C0.928961 10.2829 0.813148 10.147 0.744757 9.98801C0.676365 9.829 0.658466 9.65403 0.693323 9.48523C0.728182 9.31642 0.81423 9.16136 0.940592 9.03964L9.0749 1.2066C9.15877 1.12571 9.25837 1.06153 9.36802 1.01774C9.47766 0.973954 9.5952 0.951416 9.7139 0.951416C9.8326 0.951416 9.95014 0.973954 10.0598 1.01774C10.1694 1.06153 10.269 1.12571 10.3529 1.2066L18.4872 9.03964C18.6136 9.16136 18.6996 9.31642 18.7345 9.48523C18.7693 9.65403 18.7514 9.829 18.683 9.98801C18.6147 10.147 18.4988 10.2829 18.3502 10.3786C18.2016 10.4742 18.0269 10.5253 17.8482 10.5253ZM11.5215 16.6177V12.266H7.90627V16.6177H11.5215ZM9.7139 3.05259L4.29102 8.27461V12.266L4.29012 16.6177H6.09865V12.266C6.09865 11.306 6.90937 10.5253 7.90627 10.5253H11.5215C12.5184 10.5253 13.3291 11.306 13.3291 12.266V16.6177H15.1368V8.27461L9.7139 3.05259Z" fill="none"/>
</svg>
