<svg width="48" height="36" viewBox="0 0 48 36" fill="none" xmlns="http://www.w3.org/2000/svg">
<path d="M44.3348 35.4255C44.3348 35.4255 47.2723 35.4255 47.2723 32.5505C47.2723 29.6755 44.3348 21.0505 32.5848 21.0505C20.8348 21.0505 17.8973 29.6755 17.8973 32.5505C17.8973 35.4255 20.8348 35.4255 20.8348 35.4255H44.3348ZM20.8995 32.5505C20.8778 32.5476 20.8562 32.5438 20.8348 32.539C20.8378 31.78 21.3254 29.5778 23.0673 27.594C24.6888 25.7339 27.5382 23.9255 32.5848 23.9255C37.6285 23.9255 40.4779 25.7368 42.1023 27.594C43.8443 29.5778 44.329 31.7829 44.3348 32.539L44.3113 32.5448C44.2977 32.5471 44.284 32.549 44.2702 32.5505H20.8995V32.5505ZM32.5848 15.3005C34.143 15.3005 35.6373 14.6947 36.7391 13.6164C37.8409 12.5381 38.4598 11.0755 38.4598 9.55054C38.4598 8.02554 37.8409 6.56301 36.7391 5.48467C35.6373 4.40634 34.143 3.80054 32.5848 3.80054C31.0267 3.80054 29.5324 4.40634 28.4306 5.48467C27.3288 6.56301 26.7098 8.02554 26.7098 9.55054C26.7098 11.0755 27.3288 12.5381 28.4306 13.6164C29.5324 14.6947 31.0267 15.3005 32.5848 15.3005ZM41.3973 9.55054C41.3973 10.6832 41.1694 11.8047 40.7265 12.8512C40.2837 13.8976 39.6345 14.8484 38.8162 15.6493C37.9979 16.4502 37.0264 17.0856 35.9572 17.519C34.8881 17.9524 33.7421 18.1755 32.5848 18.1755C31.4276 18.1755 30.2816 17.9524 29.2124 17.519C28.1433 17.0856 27.1718 16.4502 26.3535 15.6493C25.5351 14.8484 24.886 13.8976 24.4431 12.8512C24.0003 11.8047 23.7723 10.6832 23.7723 9.55054C23.7723 7.26304 24.7008 5.06924 26.3535 3.45174C28.0061 1.83424 30.2476 0.925537 32.5848 0.925537C34.9221 0.925537 37.1636 1.83424 38.8162 3.45174C40.4689 5.06924 41.3973 7.26304 41.3973 9.55054V9.55054ZM20.6468 21.8555C19.4718 21.4934 18.2605 21.2553 17.0337 21.1454C16.3444 21.0813 15.6523 21.0496 14.9598 21.0505C3.20984 21.0505 0.272339 29.6755 0.272339 32.5505C0.272339 34.4682 1.25053 35.4255 3.20984 35.4255H15.5943C15.1589 34.528 14.9417 33.544 14.9598 32.5505C14.9598 29.6468 16.0673 26.6798 18.1617 24.2015C18.8755 23.3563 19.7068 22.5657 20.6468 21.8555ZM14.7248 23.9255C12.9863 26.4822 12.0471 29.4795 12.0223 32.5505H3.20984C3.20984 31.803 3.69159 29.5893 5.44234 27.594C7.04328 25.7655 9.82509 23.983 14.7248 23.9284V23.9255ZM4.67859 10.988C4.67859 8.70054 5.60705 6.50674 7.25971 4.88924C8.91237 3.27174 11.1539 2.36304 13.4911 2.36304C15.8283 2.36304 18.0698 3.27174 19.7225 4.88924C21.3751 6.50674 22.3036 8.70054 22.3036 10.988C22.3036 13.2755 21.3751 15.4693 19.7225 17.0868C18.0698 18.7043 15.8283 19.613 13.4911 19.613C11.1539 19.613 8.91237 18.7043 7.25971 17.0868C5.60705 15.4693 4.67859 13.2755 4.67859 10.988V10.988ZM13.4911 5.23804C11.9329 5.23804 10.4386 5.84384 9.33684 6.92217C8.23506 8.00051 7.61609 9.46304 7.61609 10.988C7.61609 12.513 8.23506 13.9756 9.33684 15.0539C10.4386 16.1322 11.9329 16.738 13.4911 16.738C15.0492 16.738 16.5436 16.1322 17.6453 15.0539C18.7471 13.9756 19.3661 12.513 19.3661 10.988C19.3661 9.46304 18.7471 8.00051 17.6453 6.92217C16.5436 5.84384 15.0492 5.23804 13.4911 5.23804Z" fill="none"/>
</svg>
