<svg width="27" height="27" viewBox="0 0 27 27" fill="none" xmlns="http://www.w3.org/2000/svg">
<path d="M13.3333 0.362305C6.031 0.362305 0.0900879 6.30322 0.0900879 13.6055V19.0922C0.0900879 20.4483 1.27801 21.5515 2.73873 21.5515H4.06306C4.41429 21.5515 4.75114 21.4119 4.99949 21.1636C5.24785 20.9152 5.38738 20.5784 5.38738 20.2271V13.4162C5.38738 13.0649 5.24785 12.7281 4.99949 12.4797C4.75114 12.2314 4.41429 12.0918 4.06306 12.0918H2.86057C3.59689 6.9667 8.00689 3.01095 13.3333 3.01095C18.6597 3.01095 23.0697 6.9667 23.8061 12.0918H22.6036C22.2523 12.0918 21.9155 12.2314 21.6671 12.4797C21.4188 12.7281 21.2793 13.0649 21.2793 13.4162V21.5515C21.2793 23.0122 20.0913 24.2001 18.6306 24.2001H15.982V22.8758H10.6847V26.8488H18.6306C21.5521 26.8488 23.9279 24.4729 23.9279 21.5515C25.3886 21.5515 26.5765 20.4483 26.5765 19.0922V13.6055C26.5765 6.30322 20.6356 0.362305 13.3333 0.362305Z" fill="#3A78F2"/>
</svg>
